<svg width="80" height="72" viewBox="0 0 80 72" fill="none" xmlns="http://www.w3.org/2000/svg">
<g clip-path="url(#clip0_1134_1052)">
<path d="M67.6744 37.0848C67.8028 18.4612 52.8094 3.2597 34.1858 3.13134C15.5622 3.00298 0.360789 17.9963 0.232431 36.6199C0.104073 55.2435 15.0974 70.445 33.721 70.5733C52.3446 70.7017 67.5461 55.7083 67.6744 37.0848Z" fill="#EDF0FF"/>
<path d="M67.6744 37.0848C67.8028 18.4612 52.8094 3.2597 34.1858 3.13134C15.5622 3.00298 0.360789 17.9963 0.232431 36.6199C0.104073 55.2435 15.0974 70.445 33.721 70.5733C52.3446 70.7017 67.5461 55.7083 67.6744 37.0848Z" fill="url(#paint0_linear_1134_1052)"/>
<mask id="mask0_1134_1052" style="mask-type:luminance" maskUnits="userSpaceOnUse" x="4" y="0" width="71" height="71">
<path d="M74.5537 0H4.05371V70.5H74.5537V0Z" fill="white"/>
</mask>
<g mask="url(#mask0_1134_1052)">
<path d="M65.4346 27.9506C71.8618 43.1096 63.6266 60.7197 47.2634 67.6796C30.9002 74.6394 12.6379 68.3112 6.21078 53.1521C-0.216342 37.9931 8.24874 21.2132 24.6119 14.2494C40.9751 7.28565 59.0075 12.7876 65.4346 27.9506Z" fill="#EDF0FF"/>
<path d="M65.4346 27.9506C71.8618 43.1096 63.6266 60.7197 47.2634 67.6796C30.9002 74.6394 12.6379 68.3112 6.21078 53.1521C-0.216342 37.9931 8.24874 21.2132 24.6119 14.2494C40.9751 7.28565 59.0075 12.7876 65.4346 27.9506Z" fill="url(#paint1_linear_1134_1052)"/>
<path d="M55.2885 21.384C53.8017 22.2659 52.3861 23.3265 51.3751 24.7289C50.364 26.1312 49.7931 27.9149 50.1103 29.615C50.142 29.7858 50.1895 29.9646 50.3205 30.0798C50.4949 30.2307 50.7526 30.2109 50.9785 30.1832C54.4638 29.7104 57.7863 28.1015 60.3199 25.6584C61.8424 24.1965 63.2935 22.3295 65.391 22.0871C66.3624 21.9719 67.3458 22.242 68.2219 22.6712C68.674 22.8896 69.1101 23.1597 69.4392 23.5371C70.1925 24.3992 70.2559 25.6623 70.1449 26.8065C70.0221 28.0617 69.7405 29.3132 69.2965 30.4929C68.904 31.5377 68.0158 32.3402 67.2664 33.1625C65.5774 35.0216 63.7377 36.7497 61.7196 38.2473C58.8766 40.3527 56.1687 42.5217 53.0166 44.1941C51.4029 45.0482 49.92 45.6957 48.5956 46.9988C47.3308 48.2421 46.3 49.7279 45.5665 51.3446C44.9638 52.6754 44.611 54.0182 43.9251 55.3251C43.1995 56.7035 42.3826 58.0383 41.451 59.2857C40.309 60.819 39.2107 61.7049 37.4146 62.4279C34.6828 63.5283 31.7052 63.8262 28.7671 64.0089C26.5984 64.1441 24.4216 64.2195 22.2529 64.0884C21.6898 64.0566 20.4448 63.9335 20.3101 63.2066C20.1594 62.3882 21.2775 62.0108 21.8484 61.8917C25.393 61.1528 29.0011 60.108 31.8202 57.8318C32.3911 57.371 32.974 56.6996 32.7718 55.9964C31.2889 55.9289 29.8734 56.5446 28.446 56.9498C26.868 57.3987 25.2186 57.5973 23.581 57.5378C23.0499 57.5178 22.3599 57.3113 22.3599 56.7791C22.3639 56.3381 22.8516 56.0957 23.2521 55.913C24.6238 55.2972 25.7817 54.3041 26.9196 53.3229C27.8869 52.4888 28.902 51.5829 29.2509 50.3514C29.2984 50.1846 29.3302 49.998 29.2509 49.847C29.0764 49.5054 28.5729 49.5968 28.2201 49.7438C26.424 50.4866 24.6675 51.3287 22.9626 52.2662C20.8057 53.454 18.5377 54.8364 16.0875 54.6339C15.6037 54.5942 14.9892 54.3081 15.0843 53.8314C15.1359 53.5653 15.3975 53.3984 15.6315 53.2634C21.892 49.6166 27.2526 44.063 28.6839 36.9522C29.8536 31.1405 28.2835 25.1142 28.8148 19.2111C28.894 18.3173 29.025 17.4195 29.3302 16.5734C29.5404 15.9894 29.8297 15.4332 30.1431 14.8969C32.2167 11.3137 35.2696 8.30256 38.8737 6.27261C42.2002 4.40555 45.8758 4.25856 49.4005 2.8086C51.6447 1.88697 53.9245 0.80248 56.3511 0.85015C56.5176 0.854124 56.692 0.866042 56.8228 0.965354C56.9379 1.05672 56.9973 1.19973 57.045 1.34274C57.4176 2.44313 57.4137 3.63488 57.6991 4.76307C57.7269 4.87827 57.7705 5.00538 57.8736 5.061C57.9766 5.11662 58.1076 5.08484 58.2186 5.04909C59.17 4.74717 60.1216 4.44527 61.0732 4.14336C61.3707 4.04802 61.6918 3.95664 61.9812 4.06391C62.5402 4.27047 62.6037 5.02922 62.5482 5.62511C62.005 11.5799 60.427 18.3371 55.2885 21.384Z" fill="#577BF9"/>
<path d="M37.3712 11.1824C34.6353 12.9343 32.2088 15.1669 30.2264 17.7411C31.5863 18.1423 32.9264 18.6229 34.2309 19.183C33.1326 20.2795 31.8083 21.1494 30.369 21.7215C28.7673 22.357 27.6809 23.1556 26.7134 24.5857C28.7751 25.1418 30.9123 24.2559 32.9225 23.533C34.9485 22.806 37.0262 22.23 39.1395 21.8128C40.428 21.5586 41.7959 21.3361 42.803 20.49C42.8823 20.4225 42.9656 20.335 42.9617 20.2318C42.9576 20.1444 42.8903 20.073 42.8268 20.0133C41.8911 19.1512 40.5588 18.7938 39.6906 17.8602C39.5954 17.757 39.5003 17.6218 39.536 17.4868C39.5637 17.3796 39.6668 17.308 39.7619 17.2485C40.7096 16.6486 41.6532 16.0488 42.6008 15.4489C41.3876 14.142 40.1544 12.8509 38.9016 11.5837C38.5209 11.1983 37.827 10.8885 37.3712 11.1824Z" fill="#EE686B"/>
<path d="M50.8 25.698C50.2014 27.144 50.0704 28.7568 50.2212 30.318C51.5058 30.183 52.7706 29.869 53.964 29.3805C54.1582 29.301 54.3645 29.2057 54.4716 29.023C54.5428 28.8999 54.5587 28.7488 54.5667 28.6059C54.6538 26.9175 53.9838 25.2015 54.4159 23.5687C54.5151 23.1952 54.8283 22.2261 54.1821 22.1187C53.8332 22.0591 53.2701 22.6908 53.0124 22.8855C52.0291 23.6323 51.2718 24.5539 50.8 25.698Z" fill="#F6E5C1"/>
<path d="M52.4256 44.1465C51.7159 44.5398 51.0061 44.9371 50.3718 45.4416C49.5114 46.1289 48.8176 47.0028 48.1792 47.9046C46.395 50.431 45.0153 53.2158 43.6434 55.9885C43.3698 56.5368 43.1002 57.085 42.8266 57.6333C42.4896 58.3125 42.1486 59.0077 42.0613 59.7625C42.0297 60.0405 42.0534 60.3663 42.2794 60.5331C42.4302 60.6444 42.6363 60.6523 42.8226 60.6403C43.6116 60.6007 44.3769 60.3663 45.1222 60.1041C50.5462 58.1893 55.3161 54.4671 58.4919 49.6644C58.833 49.1479 59.1621 48.6156 59.38 48.0357C59.5744 47.5152 59.6814 46.971 59.7766 46.4227C60.0423 44.9053 60.2404 43.3759 60.3594 41.8386C60.3991 41.3419 60.4348 40.186 59.7607 40.1025C59.1937 40.0311 57.8457 41.1274 57.3342 41.4094C55.7007 42.3232 54.0631 43.2369 52.4256 44.1465Z" fill="#F6E5C1"/>
<path d="M20.6668 39.566C19.6756 40.0348 18.6169 40.5551 18.0777 41.5126C17.5147 42.5137 17.6653 43.8166 18.2719 44.7938C18.8787 45.7711 19.8738 46.4543 20.9325 46.8992C21.2457 47.0303 21.5787 47.1455 21.9157 47.1059C22.2765 47.0662 22.5937 46.8556 22.8832 46.6331C24.2392 45.5764 25.1907 44.0947 26.1145 42.6487C27.2367 40.8968 28.3864 39.0575 28.6125 36.9878C28.8345 34.9342 26.5348 36.8051 25.7934 37.1548C24.0846 37.9571 22.3756 38.7596 20.6668 39.566Z" fill="#336093"/>
<path d="M42.5452 5.36684C44.2621 4.42139 46.1017 3.71825 47.9335 3.0191C50.4274 2.06968 52.9333 1.11627 55.558 0.643542C55.7722 0.603818 55.9981 0.572037 56.1964 0.65546C56.4026 0.738882 56.5414 0.933536 56.6603 1.12024C57.3422 2.21665 57.6713 3.53155 57.584 4.82261C57.5762 4.94974 57.5603 5.0848 57.4771 5.18014C57.4216 5.24767 57.3383 5.28343 57.259 5.31917C56.4263 5.69657 55.5541 6.00643 54.7571 6.45532C53.9563 6.90421 53.2148 7.51597 52.8104 8.33828C52.061 9.85975 52.5883 11.7705 51.8786 13.3118C51.4742 14.1937 50.7089 14.8492 49.9358 15.4332C48.778 16.3111 47.4062 17.1294 45.967 16.9308C45.1343 16.8156 44.3849 16.3707 43.6673 15.9297C43.2748 15.6913 42.8861 15.457 42.4937 15.2187C40.7332 14.15 38.834 12.9067 38.2513 10.9283C37.8112 9.42674 38.2513 8.67197 39.3178 7.66295C40.2853 6.75722 41.3875 6.00245 42.5452 5.36684Z" fill="#D6EDFB"/>
<path d="M60.2801 16.6288C60.4148 16.895 60.6647 17.1493 60.962 17.1134C61.0889 17.0975 61.204 17.0341 61.315 16.9664C61.7431 16.7123 62.1872 16.4461 62.441 16.0171C62.6789 15.6199 62.7185 15.1391 62.7502 14.6823C62.8177 13.717 62.8414 12.6524 62.2466 11.8897C62.1793 11.8062 62.096 11.7188 61.9889 11.7069C61.1405 11.5997 60.637 12.9026 60.4903 13.5065C60.2404 14.5155 59.7607 15.6119 60.2801 16.6288Z" fill="#F6E5C1"/>
<path d="M66.2435 20.1127C65.4545 20.4703 64.5822 21.1337 64.7289 21.9917C65.7717 21.9401 66.8304 21.9481 67.8296 22.2578C68.8247 22.5677 69.7565 23.2192 70.1925 24.1687C70.8746 25.6504 70.2164 27.4063 70.5098 29.0072C71.9054 28.2563 73.0275 27.0089 73.6302 25.5431C73.8839 24.9194 74.0504 24.2282 73.9037 23.5727C73.7808 23.0285 73.4517 22.5359 73.3844 21.9838C73.313 21.3919 73.547 20.8159 73.7531 20.2558C73.8443 20.0134 73.9196 19.7075 73.7451 19.5128C73.5707 19.3183 73.2654 19.358 73.0116 19.4017C71.8023 19.6162 70.6367 19.5407 69.4353 19.354C68.3648 19.1911 67.2308 19.6678 66.2435 20.1127Z" fill="#F6E5C1"/>
<path d="M15.4924 42.0608C15.4567 42.2474 15.4448 42.4421 15.3775 42.6209C15.088 43.3678 14.0016 43.4671 13.5734 44.1424C13.4783 44.2933 13.4188 44.4761 13.4465 44.6548C13.4981 45.0044 13.847 45.2308 14.184 45.3461C14.521 45.4613 14.8858 45.5209 15.1594 45.7472C15.5956 46.1087 15.647 46.7801 16.0396 47.1932C16.3052 47.4754 16.6937 47.5985 17.0665 47.6899C17.8832 47.8924 18.7238 47.9996 19.5644 48.0076C19.7983 48.0116 20.06 47.9917 20.2147 47.8169C20.4089 47.5985 20.3177 47.233 20.1155 47.0224C19.9133 46.8119 19.6318 46.7006 19.3741 46.5577C18.7277 46.2001 18.2164 45.6043 17.9585 44.909C17.689 44.1701 17.7167 43.3598 17.915 42.605C18.0497 42.0965 18.8744 40.9604 18.5018 40.4797C18.1687 40.0507 17.1538 40.3328 16.7651 40.5115C16.1426 40.8016 15.6272 41.3696 15.4924 42.0608Z" fill="#F6E5C1"/>
<path d="M11.3531 59.4166C11.3967 59.6945 11.7179 59.8177 11.9875 59.8892C12.6972 60.0719 13.4109 60.223 14.1325 60.3541C14.4814 60.4136 14.8343 60.4693 15.1833 60.4136C15.5322 60.358 15.877 60.1712 16.0396 59.8615C16.1308 59.6866 16.1626 59.4841 16.1704 59.2814C16.1824 59.0074 16.1506 58.7252 16.0198 58.483C15.774 58.034 15.2268 57.8354 14.7154 57.8236C14.2079 57.8156 13.7083 57.9547 13.2008 58.0222C12.5505 58.1095 11.1945 58.4432 11.3531 59.4166Z" fill="#6B8FCA"/>
<path d="M46.8393 11.0833C47.549 10.7853 48.3737 10.7853 49.1151 11.1468C49.4562 10.7893 49.7774 10.4079 50.0747 10.0146C50.0985 9.98287 50.4554 9.47438 50.4276 9.47836C50.0945 9.50617 49.7615 9.58561 49.4483 9.70478C49.2659 9.77233 49.0478 9.58958 48.8733 9.52603C48.6393 9.43864 48.3975 9.37904 48.1517 9.34726C47.6442 9.2837 47.0217 9.3433 46.5578 9.56177C45.9869 9.83191 45.4833 10.257 45.1067 10.7575C44.5515 11.4924 44.2463 12.4061 44.4048 13.3198C44.4168 13.3833 44.4446 13.4588 44.508 13.4628C44.5476 13.4628 44.5793 13.4389 44.607 13.4111C45.0314 13.0258 45.3248 12.5094 45.6459 12.0406C45.9591 11.6036 46.3754 11.2779 46.8393 11.0833Z" fill="#1D445C"/>
<path opacity="0.5" d="M41.3319 13.6577C41.4429 13.7769 41.5737 13.904 41.7245 14.0589C42.2517 14.5913 42.6879 15.2069 43.2431 15.7075C43.6077 16.0333 44.0994 16.3987 44.603 16.4504C44.7695 16.4663 45.9431 16.502 45.9749 16.4107C46.7559 13.9517 47.4221 11.4808 48.1199 8.99004C48.3102 8.31073 50.36 2.6221 49.8564 2.46321C49.7297 2.42349 49.5908 2.47909 49.4679 2.53074C48.0803 3.13854 46.6965 3.74632 45.3087 4.35412C44.3571 4.77123 44.1351 5.33533 43.7307 6.23709C43.1558 7.52418 42.6047 8.81922 42.0734 10.1222C41.7561 10.9008 41.4549 11.6874 41.1416 12.4699C40.9037 13.042 41.0226 13.3161 41.3319 13.6577Z" fill="white"/>
<path opacity="0.5" d="M48.5164 15.7115C49.5749 15.2982 50.7169 14.8176 51.268 13.8206C51.5654 13.2803 51.6526 12.6566 51.7319 12.0448C52.2116 8.41794 52.6913 4.78707 53.1712 1.16018C53.1869 1.02909 52.18 1.41442 52.0808 1.52168C51.8191 1.79975 51.8152 2.15331 51.7121 2.5148C51.4147 3.56355 51.0539 4.59639 50.7526 5.64513C50.146 7.76249 49.6225 9.90366 49.1785 12.0607C48.9367 13.2723 48.7145 14.4919 48.5164 15.7115Z" fill="white"/>
<path d="M60.2446 30.052C57.6991 31.2992 55.2923 31.7879 52.505 31.8475C50.3164 31.8952 48.0049 31.6886 46.2008 30.4453C45.7687 30.1472 45.3761 29.7977 45.0352 29.4044C45.9074 29.5117 46.7758 30.032 47.6242 30.2783C48.4966 30.5326 49.4005 30.6677 50.3084 30.5762C52.2077 30.3856 54.0355 29.6984 55.7047 28.7966C57.4453 27.8591 59.0471 26.6951 60.6529 25.5431C61.1644 25.1777 61.6363 24.7844 62.0207 24.2998C62.453 23.7556 62.9327 23.263 63.5671 22.961C64.3799 22.5757 65.3156 22.5518 66.2156 22.5875C67.1038 22.6234 68.0197 22.7227 68.785 23.1755C70.03 23.9104 70.589 25.5908 70.0657 26.9176C69.7166 26.1827 68.896 25.7299 68.0831 25.7378C66.8144 25.7497 65.4664 26.9255 64.4513 27.5851C63.0913 28.4708 61.7075 29.321 60.2525 30.0361C60.2564 30.0479 60.2485 30.0479 60.2446 30.052Z" fill="#6C99CE"/>
<path d="M54.551 6.90005C52.858 7.92098 52.3385 9.71258 52.3981 11.5717C52.4615 13.4904 53.861 14.7855 55.7167 15.278C61.3072 16.7597 62.5204 9.7245 62.7146 5.69241C62.7305 5.32694 62.7226 4.91379 62.461 4.65558C62.2786 4.47683 62.0168 4.41723 61.7632 4.38546C60.1613 4.18683 58.4128 4.65558 57.0845 5.56131C56.2837 6.10556 55.3598 6.41144 54.551 6.90005Z" fill="#6C99CE"/>
<path d="M28.5768 19.6042C28.4499 20.5099 28.4024 21.4712 28.7948 22.2974C30.5433 21.3799 32.2325 20.347 33.8462 19.2068C32.847 18.9287 31.8479 18.6508 30.8487 18.3686C30.698 18.3289 30.5354 18.2773 30.4562 18.1423C30.3729 18.0071 30.4046 17.8285 30.4521 17.6774C30.6821 16.9426 31.2095 16.3427 31.7487 15.7906C33.3108 14.1896 35.0792 12.7873 36.9942 11.6353C37.3788 11.4049 37.7912 11.1546 37.9617 10.7454C38.2274 10.1138 37.8309 9.32326 38.1719 8.73136C38.3978 8.33809 38.8617 8.17522 39.2622 7.95673C40.0472 7.53168 40.2375 6.60607 39.2502 6.27636C38.4732 6.01815 37.8705 6.68155 37.2599 7.07086C35.7533 8.03221 34.3497 8.99355 33.1166 10.3045C30.7139 12.8509 29.0645 16.1282 28.5768 19.6042Z" fill="#336093"/>
<path d="M30.8169 24.5102C29.001 24.6295 28.4936 24.844 28.6284 26.6594C28.7829 28.7767 28.9851 30.91 29.001 33.0353C29.0208 35.6333 28.6917 38.2988 27.4904 40.6028C26.5944 42.319 25.274 43.7809 24.1124 45.3143C22.9902 46.796 21.9197 48.2221 20.5955 49.549C21.44 48.7028 23.3193 48.3572 24.386 47.7494C25.6983 47.0026 26.9313 46.1167 28.0614 45.1117C32.2839 41.3617 35.6343 36.4715 36.5978 30.8186C37.0577 28.1213 37.0022 25.3643 36.9467 22.6313C35.0198 23.2787 32.8509 24.3791 30.8169 24.5102Z" fill="#336093"/>
<path d="M16.2103 57.6091C16.1548 57.5733 16.0954 57.5335 16.0399 57.5097C15.6353 57.2992 15.2389 57.327 14.7711 57.331C14.2041 57.339 13.649 57.3667 13.0939 57.466C11.9996 57.6567 10.9291 58.0341 9.93785 58.4869C9.35897 58.7532 7.45977 59.4126 8.49462 60.2547C8.87922 60.5725 9.37482 60.7116 9.86252 60.8149C11.1353 61.0969 12.4476 61.1923 13.7481 61.1049C14.4459 61.0572 15.005 60.9499 15.6512 60.648C15.8932 60.5328 16.1389 60.4176 16.3372 60.2388C17.1064 59.5555 17.0627 58.201 16.2103 57.6091ZM15.4927 59.1822C15.0367 59.8774 13.6094 59.6707 12.9393 59.6073C12.7133 59.5834 12.4754 59.5476 12.3207 59.3808C12.289 59.3451 12.2613 59.2974 12.2613 59.2537C12.2613 59.1663 12.3445 59.1106 12.4238 59.0749C12.9076 58.8325 13.4389 58.6737 13.9781 58.6141C14.3349 58.5783 14.9654 58.4631 15.2825 58.6737C15.56 58.8604 15.5918 59.0313 15.4927 59.1822Z" fill="#1D445C"/>
<path d="M56.244 13.8325C56.5413 13.61 56.8744 13.324 56.8467 12.9546C56.811 12.5097 56.244 12.2673 55.8555 12.3825C55.4748 12.4938 55.0783 12.9387 54.8206 13.2207C53.524 14.6429 52.2315 16.069 50.935 17.4911C50.8398 17.5945 50.3799 17.9996 50.7763 17.9837C51.0499 17.9719 51.4186 17.6342 51.6328 17.4793C52.1958 17.0662 52.6993 16.5775 53.2425 16.1444C54.2259 15.358 55.2289 14.5873 56.244 13.8325Z" fill="#1D445C"/>
<path d="M53.5122 18.8652C53.4012 19.052 52.9174 19.7829 53.4726 19.3857C53.8968 19.0758 54.1863 18.6428 54.5193 18.2456C54.8721 17.8245 55.233 17.4074 55.6057 17.0022C55.9546 16.6208 56.3511 16.2911 56.6961 15.9018C56.9973 15.5601 57.6912 14.7895 57.1956 14.3208C57.037 14.1698 56.6959 14.3009 56.5374 14.4081C56.2558 14.5988 56.1448 14.9087 55.9506 15.1748C55.7365 15.4688 55.566 15.7866 55.3519 16.0766C54.7017 16.9784 54.0871 17.9079 53.5122 18.8652Z" fill="#1D445C"/>
<path d="M74.1892 22.0035C74.1496 21.928 74.1059 21.8644 74.0623 21.8128C74.2368 21.3838 74.3755 20.923 74.4707 20.4186C74.5064 20.2357 74.5936 19.8067 74.3914 19.3936C74.213 19.0401 73.8521 18.7818 73.4318 18.6984C73.1345 18.6427 72.853 18.6745 72.5953 18.7222C72.3257 18.7699 72.0679 18.8374 71.8142 18.9208C70.8904 18.3727 69.9229 18.48 69.0625 18.5752L68.8802 18.5991C67.877 18.7143 66.8858 19.0599 66.0136 19.6081C64.8914 20.3034 63.8923 21.3243 63.0359 22.6431C62.1557 23.227 61.3588 23.9659 60.6094 24.6532C60.1772 25.0545 59.7688 25.4317 59.3605 25.7734C58.4089 26.5521 57.5485 27.2512 56.593 27.8352C56.1884 28.0894 55.7642 28.3198 55.3282 28.5225C54.7373 26.6196 54.773 24.5857 55.4471 22.9609C55.784 22.1664 56.2916 21.5626 56.8348 20.919C57.0845 20.6251 57.3383 20.3152 57.596 19.9735C57.7666 19.7431 57.937 19.5088 58.1114 19.2705C58.5635 18.6427 58.9798 17.9953 59.3803 17.3358C59.5429 17.0658 59.8322 16.7956 60.0742 17.1928C60.1891 17.3755 60.2209 17.61 60.3754 17.7609C60.6371 17.9992 61.0495 17.8602 61.3627 17.6934C62.0566 17.316 62.7305 16.7916 63.0042 16.0408C63.2063 15.4807 63.1549 14.857 63.0994 14.2611C63.0121 13.3157 62.9249 12.3742 62.8417 11.4367C62.7822 10.809 62.675 10.1814 62.7425 9.55372C62.806 8.89429 63.0517 8.23884 63.1826 7.58734C63.2143 7.43638 63.2618 7.24968 63.3095 7.04709C63.4483 6.48696 63.587 5.92287 63.7178 5.36671C63.8527 4.78672 64.0826 4.22661 64.2332 3.67443C64.4315 2.95938 64.6378 2.02186 64.2016 1.35846C63.7931 0.738748 62.8931 0.520261 62.2984 0.981071C62.2508 1.01285 62.2151 1.0486 62.1755 1.08833C62.0209 1.2512 61.898 1.45777 61.6918 1.54516C61.5253 1.62064 61.339 1.60476 61.1525 1.59681C60.6965 1.58886 60.2248 1.67229 59.86 1.94638C59.1106 2.51842 59.3168 3.19375 59.8124 3.76579C59.6896 3.85318 59.5745 3.93264 59.4754 3.97633C59.2058 4.11537 58.9322 4.22661 58.6547 4.31797C58.4485 3.63073 58.2383 2.94745 58.0243 2.25624C57.8141 1.58092 57.5881 0.389168 56.8705 0.0872577C56.692 0.0117801 56.4898 0.00780758 56.2955 0.0117801C53.75 0.0356151 51.3473 1.02874 49.0477 2.03379C48.5243 2.26021 48.0089 2.47473 47.5054 2.68924C46.6252 3.05869 45.7489 3.42813 44.8846 3.83332C44.5277 4.00017 44.2066 4.22263 43.8299 4.32195C43.4453 4.42522 43.0448 4.45701 42.6563 4.55235C42.2677 4.65166 41.8831 4.78672 41.4905 4.88206C40.8284 5.037 40.1702 5.23563 39.532 5.47C38.2672 5.93478 37.0538 6.54258 35.9318 7.27749C33.6916 8.7354 31.7806 10.6899 30.365 12.9621C29.4889 14.3684 28.8068 15.8977 28.3429 17.4907C28.117 18.2734 27.8909 19.0599 27.7522 19.8624C27.6094 20.6847 27.6173 21.4752 27.6689 22.3054C27.6689 22.3332 27.6728 22.357 27.6649 22.3849C27.6571 22.4167 27.6371 22.4445 27.6173 22.4722C27.3794 22.798 27.0266 22.9966 26.7332 23.2747C25.9322 24.0255 25.06 24.685 24.386 25.5628C24.3899 25.5549 24.9569 25.5828 25.0124 25.5867C25.2344 25.5907 25.4564 25.5946 25.6786 25.5987C25.9006 25.5987 26.1226 25.5987 26.3446 25.5987C26.5667 25.5946 26.7887 25.5907 27.0107 25.5867C27.2566 25.5787 27.4984 25.5471 27.7403 25.5271C27.7879 25.5232 27.8434 25.5232 27.8791 25.5589C27.9068 25.5867 27.9107 25.6264 27.9187 25.6623C28.0019 26.2978 28.2002 26.9295 28.2002 27.5848C28.2082 27.6843 28.2241 27.7836 28.228 27.8829C28.2835 28.3555 28.3231 28.8363 28.3469 29.313C28.3588 29.4361 28.3708 29.5632 28.3747 29.6863C28.3985 30.0955 28.4104 30.5047 28.4143 30.9217C28.4263 31.47 28.4222 32.0142 28.3945 32.5624C28.3628 33.3848 28.2874 34.2111 28.1684 35.0294C26.3684 36.1576 24.2948 37.242 21.6463 38.4576C21.2378 38.6404 20.8057 38.8429 20.3695 39.0733C20.2783 39.1012 20.1634 39.1251 20.0563 39.141C19.7629 39.2006 19.4695 39.2482 19.184 39.2878C17.8558 39.4984 16.4879 39.7209 15.2707 40.7617C14.5451 41.3775 14.0931 42.1639 14.0019 42.9744C13.9979 43.0221 14.0019 43.0657 14.0019 43.1134C13.7085 43.3239 13.423 43.5702 13.1415 43.8603C13.0265 43.9794 12.7569 44.2575 12.7093 44.6706C12.6697 45.0361 12.8085 45.4135 13.0939 45.6837C13.2882 45.8664 13.5063 45.9736 13.7125 46.065C13.9067 46.1484 14.097 46.212 14.2953 46.2676C14.7037 47.0541 15.4213 47.4156 16.0558 47.7255L16.1905 47.793C17.4316 48.4087 18.7121 48.4246 19.9532 48.4366C20.1038 48.4366 20.2466 48.4405 20.3933 48.4405C20.3615 48.4723 20.3299 48.5041 20.2942 48.5359C18.851 49.819 17.2729 50.971 15.6077 51.9562C14.0098 52.9096 12.3168 53.6008 10.6079 54.3357C10.4692 54.3954 10.3185 54.4709 10.267 54.6138C10.1916 54.8204 10.374 55.0269 10.5524 55.1461C10.8815 55.3725 11.3018 55.5513 11.6864 55.6506C12.0274 55.738 12.3803 55.746 12.7252 55.7858C13.3556 55.8532 14.0019 55.8453 14.6363 55.8096C17.0072 55.6705 19.4101 54.8919 21.5471 53.8669C22.0705 53.6167 22.5859 53.3505 23.1013 53.0884C23.6803 52.7904 24.2789 52.4806 24.8737 52.2065C24.9965 52.1469 25.1512 52.0674 25.3256 51.9801C25.7816 51.7536 26.2256 51.5152 26.6777 51.2769C26.872 51.1776 27.0544 51.0624 27.2447 50.959C27.439 50.8518 27.7085 50.6452 27.9305 50.6293C28.2319 50.6055 27.9068 51.3167 27.8354 51.4516C27.6808 51.7536 27.4508 52.0078 27.209 52.2462C27.1297 52.3296 27.0464 52.4091 26.9671 52.4845C26.5151 52.9096 26.0155 53.2791 25.5001 53.6247C25.0441 53.9266 24.5762 54.2086 24.1004 54.4708C23.6723 54.7092 23.2877 54.9673 22.8833 55.2216C22.3441 55.5592 19.1285 56.763 19.8263 57.6846C20.0603 57.9945 20.6114 58.1215 20.9603 58.201C22.5779 58.5784 24.2789 58.2924 25.8728 57.9388C27.55 57.5653 29.1835 57.0211 30.8329 56.5563C30.9994 56.5087 31.2295 56.4928 31.2968 56.6478C31.7251 57.625 28.4579 58.932 27.887 59.194C25.7777 60.1633 23.5732 60.8347 21.2974 61.3035C20.4052 61.4862 19.5091 61.6729 18.6091 61.804C17.824 61.9192 16.928 61.8556 16.2182 62.2609C15.2588 62.809 16.3808 63.6831 16.9715 64.0008C17.6495 64.3663 18.4187 64.5331 19.1681 64.7C21.8564 65.2918 24.6913 65.1648 27.4192 64.9781C32.8075 64.6006 38.1283 63.4527 43.2748 61.8238C43.814 61.6531 44.3492 61.4782 44.8885 61.2996C45.4595 61.1049 46.0502 60.9142 46.6252 60.6877C48.4727 59.9727 50.1658 59.0829 51.7081 58.0261C52.295 57.625 52.8619 57.1959 53.4052 56.7471C53.758 56.457 54.0989 56.1552 54.428 55.8414C54.8324 55.464 55.217 55.0666 55.5938 54.6574C57.6001 52.4607 59.1583 49.8547 60.2209 46.8952C60.9979 44.7223 61.1803 42.7003 60.8512 39.9433C62.5839 38.6404 64.2373 37.2262 65.7955 35.6887C67.3101 34.1872 69.011 32.4949 70.0855 30.2941L70.1212 30.3061C70.1807 30.1512 70.3591 29.9803 70.5296 29.8174C70.7953 29.5632 71.0687 29.3209 71.3344 29.0826C72.5437 27.9901 73.7927 26.862 74.3438 25.0227C74.673 23.9382 74.6134 22.8696 74.1892 22.0035ZM66.7391 20.776C67.441 20.3391 68.2339 20.061 69.0348 19.9696L69.2171 19.9458C69.3124 19.9378 69.4115 19.926 69.5027 19.914C69.3916 20.0014 69.2926 20.0967 69.1894 20.2C68.9872 20.4027 68.7652 20.6092 68.5234 20.8197C68.4479 20.8753 68.3727 20.9349 68.2973 20.9905C68.0317 21.1932 67.7581 21.3918 67.4924 21.5904C67.0048 21.4911 66.5012 21.4513 65.9897 21.5029C65.9026 21.507 65.8232 21.5229 65.74 21.5347C66.0611 21.2448 66.3941 20.9905 66.7391 20.776ZM61.553 16.3428C61.4777 16.5532 61.0217 17.022 60.7799 16.7757C60.7243 16.7161 60.6965 16.6327 60.6729 16.5532C60.5619 16.1838 60.3715 15.7945 60.4468 15.421C60.4943 15.1986 60.7957 14.2095 61.0534 14.2333C61.4857 14.2691 61.664 16.0209 61.553 16.3428ZM62.3539 14.0188C62.3618 14.2095 62.3659 14.3724 62.2508 14.5353C61.9772 14.9206 61.8305 14.0665 61.7948 13.9116C61.6958 13.4984 61.6879 13.0614 61.8703 12.6721C61.9693 12.4497 62.1596 12.5569 62.2151 12.7556C62.3222 13.1608 62.342 13.5977 62.3539 14.0188ZM42.4421 6.75312C44.2382 5.54548 46.0859 4.77084 48.0485 3.94852C48.56 3.73401 49.0834 3.51553 49.6067 3.28512C51.5416 2.44296 53.4329 1.73584 55.5104 1.28695C55.685 1.2512 55.8634 1.21148 56.0378 1.25915C56.3074 1.3386 56.4185 1.72791 56.5295 1.96228C56.6801 2.28802 56.7238 2.6535 56.8229 2.9991C57.0053 3.591 57.259 4.15113 57.3622 4.76289C57.3661 4.7907 57.37 4.81851 57.3542 4.84234C57.3463 4.85425 57.3265 4.86618 57.3065 4.87413C56.8903 5.05288 56.47 5.23959 56.0537 5.41836C55.8832 5.49384 55.6771 5.6289 55.4867 5.64478C55.3321 5.65273 55.1615 5.61301 54.9991 5.61699C53.873 5.64478 53.2901 6.37971 52.6835 7.20201C51.9937 8.12362 51.8827 9.25579 51.8033 10.3681C51.716 11.5678 51.7121 12.5172 50.8478 13.4825C50.1698 14.2453 49.2619 14.7657 48.3578 15.2344C47.5411 15.6634 46.6766 16.0686 45.7529 16.0765C44.2184 16.1044 43.2074 14.857 42.1567 13.9354C41.3597 13.2362 40.7095 12.3464 40.0078 11.544C39.5438 11.0156 38.735 10.2886 38.7191 9.52989C38.7112 9.18429 38.9807 8.96182 39.2266 8.75923C39.8054 8.29444 40.4518 7.91706 41.0981 7.55158C41.546 7.3053 42.0139 7.04311 42.4421 6.75312ZM30.143 16.3387C30.6743 15.0079 31.4554 13.6971 32.3158 12.541C33.2198 11.3215 34.2904 10.2211 35.4877 9.2836C36.0904 8.81485 36.7208 8.38581 37.379 8.00049C37.8587 7.7224 38.3027 7.43241 38.8024 7.19803C39.0521 7.08283 39.3059 6.96366 39.5755 6.93982C38.8499 7.44831 38.1125 7.94487 37.4068 8.47321C37.2283 8.60827 37.042 8.75128 36.9467 8.94594C36.8516 9.16045 36.8675 9.41469 36.9467 9.64113C37.1252 10.1377 37.5812 10.4595 37.0024 10.8766C36.019 11.5757 35.0396 12.2709 34.0564 12.9701C33.2753 13.5262 32.5616 14.1896 31.8638 14.853C31.5506 15.1431 31.2334 15.429 30.9598 15.7548C30.6386 16.1361 30.3809 16.6168 29.9725 16.9108C30.0043 16.6843 30.0637 16.5414 30.143 16.3387ZM29.0884 21.1018C29.0963 20.9866 29.1082 20.8674 29.12 20.7522C29.1439 20.5258 29.1716 20.2993 29.2033 20.0769C29.243 19.7988 29.2747 19.5207 29.3183 19.2466C29.3263 19.191 29.4175 18.5157 29.4848 18.5316C29.7188 18.5952 29.9567 18.6627 30.1946 18.7104C30.599 18.7938 30.9955 18.901 31.396 18.9963C31.7845 19.0917 32.177 19.1592 32.5655 19.2505C32.6885 19.2784 32.8114 19.3102 32.9344 19.338C32.9422 19.338 32.7718 19.4493 32.7599 19.4572C32.6687 19.5048 32.5775 19.5486 32.4863 19.5922C32.3039 19.6836 32.1175 19.771 31.9352 19.8624C31.5743 20.0371 31.2136 20.2159 30.8606 20.4145C30.254 20.7442 29.6672 21.0859 29.0686 21.4354C29.0923 21.4156 29.0843 21.1414 29.0884 21.1018ZM28.2518 24.0295C28.1566 24.0375 28.0615 24.0493 27.9662 24.0573C27.9148 24.0613 27.8672 24.0693 27.8156 24.0732C27.8117 24.0732 27.7205 24.0772 27.7205 24.0693C27.8077 23.9421 27.9464 23.8627 28.0694 23.7673C28.1764 23.6839 28.2676 23.5806 28.3667 23.4933C29.4809 22.4881 30.8963 21.9201 32.1968 21.217C33.3506 20.5893 34.4687 19.8901 35.5352 19.1194C35.5868 19.0798 35.6423 19.044 35.6939 19.0042C35.5472 18.9328 35.3648 18.909 35.2063 18.8533C35.008 18.7818 34.8058 18.7183 34.6036 18.6586C34.1833 18.5355 33.763 18.4282 33.3388 18.325C32.9264 18.2257 32.5141 18.1264 32.1056 18.0112C31.9985 17.9833 30.9043 17.6059 30.8963 17.6179C31.0669 17.3398 31.2889 17.1094 31.5149 16.879C31.8598 16.5334 32.2166 16.2037 32.5655 15.862C32.9819 15.4528 33.4457 15.0993 33.8858 14.714C35.222 13.5421 36.6653 12.5847 38.1442 11.6155C38.5526 12.1756 39.0205 12.692 39.4883 13.2045C40.0276 13.7964 40.5628 14.3883 41.102 14.9762C41.2369 15.1272 41.3915 15.2901 41.554 15.4489C41.447 15.5125 41.3399 15.576 41.2369 15.6316C40.0276 16.438 38.7826 17.1969 37.5098 17.896C37.5296 17.884 37.6604 17.9556 37.6843 17.9674C37.7437 17.9913 37.7993 18.0151 37.8587 18.039C38.5763 18.3448 39.2741 18.6984 39.9641 19.0639C40.309 19.2466 40.6501 19.4334 40.9949 19.6161C41.1694 19.7074 41.3399 19.7988 41.5144 19.8901C41.6729 19.9735 41.8435 20.0412 41.9861 20.1603C41.9663 20.1762 41.9386 20.188 41.9188 20.2C41.891 20.2198 41.8633 20.2398 41.8355 20.2557C41.7839 20.2875 41.7284 20.3191 41.669 20.347C41.5699 20.3947 41.4668 20.4343 41.3638 20.4702C41.1179 20.5615 40.8721 20.6529 40.6262 20.7442C40.3963 20.8276 40.1782 20.931 39.9443 21.0105C39.8332 21.0462 39.7381 21.078 39.6667 21.1057C38.398 21.5745 37.0538 22.0114 35.5472 22.4484C35.4085 22.4881 35.2736 22.5279 35.1349 22.5676C32.9026 23.2311 30.5831 23.803 28.2518 24.0295ZM16.1746 41.8024C16.7059 41.3416 17.3006 41.0994 17.9429 40.9286C17.8558 41.0398 17.7685 41.1391 17.6893 41.2582C17.5783 41.4291 17.495 41.6238 17.4236 41.8303C17.372 41.8342 17.3245 41.8422 17.2729 41.8501C16.9042 41.8819 16.5236 41.9137 16.1468 41.9971C16.0636 42.0169 15.9923 42.0328 15.913 42.0567C15.9883 41.9653 16.0756 41.886 16.1746 41.8024ZM14.2636 44.7858C14.2517 44.7778 14.2279 44.766 14.2001 44.7542C14.7909 44.1621 15.3896 43.8085 16.1191 43.6258L17.2094 43.3557C17.2333 43.9476 17.3483 44.5395 17.5346 45.0361C17.4712 45.0441 17.4116 45.0559 17.3443 45.0639C16.2421 45.1393 15.1993 45.1791 14.2636 44.7858ZM16.8248 46.5536C17.035 46.506 17.2649 46.4662 17.5028 46.4344C17.5783 46.4304 17.6495 46.4265 17.725 46.4226C17.9509 46.4026 18.1769 46.3908 18.403 46.3749C18.6566 46.6251 18.9541 46.8475 19.2832 47.0382C18.4109 47.0104 17.5822 46.931 16.8248 46.5536ZM20.3854 46.0452C19.6994 45.7551 19.18 45.3181 18.9302 44.8057C18.5536 44.0548 18.4346 42.6406 18.8431 42.013C19.3228 41.2861 20.1079 40.7617 20.9563 40.3128C21.0475 40.2771 21.1348 40.2294 21.226 40.1737C21.5669 40.0029 21.904 39.8481 22.241 39.6891C24.4295 38.692 26.2297 37.7704 27.8275 36.8368C27.6134 37.7187 27.3319 38.6007 26.9711 39.4666C25.9322 41.9494 24.3463 44.3568 22.3321 46.5378C21.6463 46.4226 20.9881 46.2994 20.3854 46.0452ZM58.9282 46.4265C58.7498 46.9389 58.5476 47.4435 58.3256 47.94C58.2424 48.1347 58.1551 48.3214 58.0679 48.508C57.0172 50.7088 55.5818 52.7149 53.861 54.4311C53.6192 54.6733 53.3695 54.9157 53.1118 55.1461C52.6676 55.5513 52.2077 55.9366 51.728 56.3022C51.6725 56.3497 51.617 56.3895 51.5614 56.4292C51.1808 56.7153 50.7923 56.9814 50.4037 57.2317C48.7583 58.2724 47.0098 58.9756 45.0749 59.4682C44.6704 59.5755 43.3343 60.0363 43.0687 59.496C43.0091 59.3689 43.0171 59.2099 43.0448 59.067C43.2352 58.0977 43.9489 57.1879 44.3731 56.3061C45.7687 53.4022 46.4942 50.2758 48.8018 47.8923C50.249 46.3947 52.0531 45.2466 53.873 44.317C55.8475 43.3081 57.7507 42.16 59.5666 40.8849C59.749 43.0221 59.5547 44.6746 58.9282 46.4265ZM69.6494 26.9652C69.566 27.7836 69.3559 28.5859 69.0229 29.3407C68.0713 31.4979 66.3507 33.202 64.828 34.7037C61.3945 38.0961 57.5009 40.9126 53.2465 43.0855C51.4187 44.0152 49.5671 45.0321 48.0724 46.4662C45.9392 48.5041 44.9282 50.8081 43.9091 53.5095C43.1558 55.4917 42.01 57.327 40.5787 58.8923C38.287 61.3948 35.0159 62.6899 31.7488 63.3057C30.0637 63.6234 28.3429 63.7744 26.6302 63.8221C25.1908 63.8578 23.0776 64.1439 21.7612 63.4645C21.7057 63.4368 21.6422 63.405 21.5908 63.3691C21.5867 63.3652 21.5828 63.3652 21.5788 63.3612C21.4955 63.3016 21.4163 63.2223 21.4004 63.1269C21.3488 62.8965 21.6065 62.7297 21.8246 62.6461C23.9935 61.812 26.3011 61.4028 28.4222 60.4375C29.921 59.7622 31.2968 58.8168 32.4466 57.6369C32.9026 57.1682 35.1269 54.6615 33.6836 54.2125C33.5647 54.1768 33.4339 54.2125 33.3149 54.2484C31.8916 54.7012 30.5078 55.2295 29.0645 55.6228C28.1684 55.873 27.2725 56.1155 26.3764 56.3657C25.619 56.5722 24.8102 56.743 24.0292 56.7748C23.9419 56.7789 23.8507 56.7828 23.7674 56.755C23.0617 56.5167 24.4613 55.8373 24.608 55.7579C25.2344 55.4004 25.8728 55.0548 26.4635 54.6376C27.5579 53.8749 28.4857 52.9374 29.2826 51.8728C29.8219 51.1458 30.3611 50.3553 30.5315 49.4417C30.595 49.1119 30.7576 47.9916 30.3848 47.7652C30.3175 47.7295 30.2342 47.7334 30.1549 47.7414C29.6989 47.8168 29.3144 48.1109 28.9337 48.369C27.6055 49.2788 26.1344 50.0215 24.7072 50.7486C24.5525 50.8281 24.4097 50.8995 24.2987 50.9511C23.6803 51.2412 23.0735 51.555 22.4789 51.8569C20.7343 52.7547 18.9104 53.4975 16.928 53.6485C16.8011 53.6565 16.6703 53.6684 16.5553 53.6127C16.4363 53.5611 16.3451 53.438 16.3769 53.3148C16.4006 53.2353 16.4641 53.1757 16.5314 53.1241C17.0866 52.6831 17.6932 52.3137 18.2761 51.9085C19.3069 51.1894 20.2783 50.3989 21.2101 49.5648C24.3661 46.7603 26.7926 43.455 28.2359 40.0029C29.2945 37.4725 29.7148 34.8387 29.7901 32.3082C29.8021 31.8751 29.81 31.4422 29.798 31.0212C29.7941 30.4927 29.7703 29.9683 29.7425 29.452C29.7068 28.8522 29.6554 28.2642 29.5958 27.6882C29.5126 26.9175 29.4175 26.1747 29.3104 25.4596C30.595 25.1617 31.8757 24.7644 33.1523 24.4149C34.5163 24.0454 35.8723 23.664 37.2244 23.2509C37.6327 23.1238 38.0411 22.9966 38.4455 22.8616C38.8697 22.7226 39.29 22.5756 39.7064 22.4247C40.1267 22.2736 40.543 22.1148 40.9553 21.948C41.3677 21.781 41.7761 21.6063 42.1844 21.4195C42.5888 21.2329 42.9893 21.0382 43.3819 20.8317C43.58 20.7283 43.7744 20.6211 43.9646 20.5138C44.0599 20.4582 44.159 20.4027 44.2541 20.347C44.3017 20.3191 44.3492 20.2914 44.3969 20.2636C44.4047 20.2596 44.5198 20.1921 44.5159 20.188C44.4404 20.1285 44.3612 20.0848 44.2819 20.0292C44.2225 19.9894 44.1668 19.9419 44.1074 19.906C43.8101 19.7193 43.5088 19.5327 43.2113 19.3459C42.5492 18.9328 41.891 18.5316 41.1853 18.2019C40.8205 18.031 40.4557 17.8602 40.1267 17.6298C40.1227 17.6259 40.3963 17.455 40.4201 17.443C40.4834 17.4073 40.5509 17.3716 40.6183 17.3358C40.7135 17.2882 40.7968 17.2206 40.888 17.161C41.1377 17.0061 41.3993 16.8711 41.6531 16.7202C41.9465 16.5414 42.2479 16.3744 42.5531 16.2156C43.0409 16.7002 43.7069 17.0061 44.3335 17.2644C45.0193 17.5464 45.9035 17.5027 46.6211 17.3875C47.7235 17.2087 48.7622 16.7439 49.7138 16.152C51.8866 14.8014 52.9849 12.9939 53.1673 10.4674C53.2346 9.5299 53.302 8.64801 53.7739 8.02035C54.329 7.28544 55.4194 6.8842 56.474 6.49491C57.2947 6.19696 58.1314 5.8315 58.952 5.47398C59.3842 5.29123 59.8124 5.10055 60.2446 4.92576C60.4231 4.85029 60.6728 4.69536 60.8711 4.69138C61.2001 4.68345 61.7355 4.95357 62.005 5.12836C62.35 5.35083 62.2151 5.84341 62.1239 6.17313C61.6442 7.88131 61.3231 9.60537 60.7283 11.2857C59.8204 13.8361 58.5635 16.2513 56.9933 18.4561C55.8238 20.1007 54.0514 21.205 52.5368 22.4842C50.5028 24.2043 49.3609 26.842 49.349 29.8095C49.349 29.8374 49.3054 29.8492 49.2817 29.8531C49.1864 29.8731 49.0873 29.8611 48.9922 29.8531C48.8336 29.8413 48.6749 29.8215 48.5204 29.7976C48.3182 29.7697 48.1159 29.734 47.9137 29.7022C47.6837 29.6625 47.4538 29.6188 47.2238 29.5752C46.982 29.5275 46.7441 29.4798 46.5022 29.4321C46.2683 29.3844 46.0343 29.3368 45.7964 29.2891C45.5824 29.2455 45.3722 29.2017 45.1582 29.154C44.9837 29.1183 44.8132 29.0785 44.6387 29.0428C44.5436 29.0229 44.4524 28.9951 44.3612 28.9833C44.3572 28.9833 44.3492 28.9833 44.3414 28.9951C44.3374 29.0149 44.3492 29.0388 44.3572 29.0587C44.381 29.0985 44.3969 29.1381 44.4286 29.1699C44.5714 29.3248 44.7101 29.4838 44.8766 29.6188C45.9392 30.4689 47.2079 30.9853 48.56 31.1323C48.9485 31.176 49.3411 31.1959 49.7336 31.188C54.3725 31.1205 58.2344 28.717 61.5371 25.6582C62.9288 24.3711 64.3722 23.0404 66.1166 22.8696C67.2387 22.7583 68.3647 23.1873 68.9792 23.9541C69.5462 24.6612 69.7802 25.7257 69.6494 26.9652ZM54.0554 29.0428C52.9808 29.4202 51.8588 29.6586 50.7289 29.7618C50.7566 27.2313 51.716 24.9868 53.425 23.5488C53.5915 23.4097 53.762 23.2788 53.9245 23.1436C53.3734 24.955 53.417 27.0685 54.0554 29.0428ZM70.0618 23.1C69.7762 22.7424 69.4234 22.4445 69.0269 22.1982C69.1537 22.0989 69.2767 21.9955 69.3956 21.8962C70.4978 21.0621 71.5604 20.3073 72.8293 20.0808C72.9362 20.061 73.0393 20.0491 73.1384 20.0571C73.1345 20.0808 73.1305 20.1126 73.1186 20.1523C72.9046 21.2448 72.5041 22.0552 71.834 22.7742L70.6366 24.0534C70.4899 23.7237 70.3036 23.4019 70.0618 23.1ZM73.0274 24.6294C72.6587 25.8648 71.8895 26.707 70.9618 27.5611C70.9855 27.4141 71.0093 27.2631 71.0252 27.1081C71.0728 26.6712 71.0846 26.1588 71.0291 25.6264C71.2195 25.4715 71.4098 25.3087 71.62 25.1458C71.9689 24.8677 72.3376 24.5857 72.6626 24.252C72.857 24.0573 73.0195 23.8548 73.1782 23.6481C73.1782 23.962 73.1266 24.2917 73.0274 24.6294Z" fill="#1D445C"/>
<path d="M20.1753 42.2794C20.1435 42.3391 20.108 42.3987 20.1119 42.4662C20.1158 42.5337 20.1674 42.6013 20.2347 42.5973C20.2704 42.5934 20.2982 42.5734 20.3259 42.5536C20.9762 42.0849 21.6344 41.6082 22.1697 41.0122C22.7049 40.4164 23.1252 39.6814 23.2124 38.883C23.2244 38.7559 23.2085 38.5969 23.0895 38.5573C23.034 38.5374 22.9745 38.5533 22.919 38.5653C22.5582 38.6646 22.0308 38.8552 21.7811 39.1492C21.575 39.3915 21.563 39.7132 21.444 40.0152C21.1229 40.8216 20.5995 41.5287 20.1753 42.2794Z" fill="#1D445C"/>
<path d="M22.7839 41.7192C22.7404 41.7946 22.6968 41.8782 22.7007 41.9616C22.7047 42.0489 22.7721 42.1404 22.8594 42.1324C22.9029 42.1284 22.9426 42.1006 22.9783 42.0768C23.8267 41.4649 24.6792 40.8453 25.381 40.0707C26.0827 39.2959 26.626 38.3386 26.737 37.2978C26.7529 37.135 26.733 36.9244 26.5785 36.8728C26.5071 36.849 26.4277 36.8649 26.3563 36.8847C25.8885 37.0158 25.1986 37.258 24.8734 37.6434C24.6039 37.9612 24.592 38.3784 24.4374 38.7717C24.0171 39.8203 23.3391 40.7419 22.7839 41.7192Z" fill="#1D445C"/>
<path d="M34.1118 28.1809C34.0881 28.2166 34.0444 28.2365 34.0008 28.2563C33.0135 28.6894 32.0143 29.1224 30.9439 29.3329C30.5553 29.4124 30.1548 29.4601 29.7544 29.468C29.2866 29.4799 28.8108 29.4362 28.3587 29.3249C28.335 28.8443 28.2952 28.3676 28.2397 27.8948C28.446 27.7678 28.6641 27.6685 28.8742 27.6326C29.124 27.5929 29.3658 27.6406 29.6077 27.7081C29.7861 27.7558 29.9646 27.8035 30.1548 27.8312C31.3522 28.0061 32.5576 27.8869 33.751 27.9068C33.8422 27.9068 33.9453 27.9107 34.0206 27.9584C34.1038 28.0021 34.1593 28.1093 34.1118 28.1809Z" fill="#1D445C"/>
<path d="M32.4544 31.2991C32.4306 31.335 32.3869 31.3548 32.3434 31.3747C31.5147 31.7322 30.682 32.0977 29.7979 32.3281C29.6274 32.3797 29.457 32.4154 29.2825 32.4513C28.9969 32.5108 28.7036 32.5506 28.4062 32.5704C28.434 32.0221 28.4379 31.4779 28.4261 30.9297C28.4499 30.9337 28.4777 30.9376 28.5014 30.9417C28.9376 31.0053 29.3737 31.0291 29.8098 31.033C30.571 31.045 31.3363 31.0012 32.0976 31.0132C32.1888 31.0132 32.288 31.0171 32.3672 31.0648C32.4504 31.1125 32.502 31.2237 32.4544 31.2991Z" fill="#1D445C"/>
<path d="M55.6057 54.6737C55.2289 55.0828 54.8443 55.4801 54.4399 55.8575C53.98 55.6549 53.5439 55.4204 53.1157 55.1662C52.7588 54.9557 52.4099 54.7333 52.057 54.5108C52.0213 54.487 51.9778 54.4591 51.9619 54.4195C51.9262 54.34 51.9935 54.2446 52.0847 54.2089C52.172 54.1771 52.2671 54.185 52.3663 54.2009C52.8659 54.2764 53.3693 54.3677 53.8651 54.4552C54.4399 54.5545 55.0189 54.6458 55.6057 54.6737Z" fill="#1D445C"/>
<path d="M53.417 56.7631C52.8737 57.216 52.3107 57.6411 51.7199 58.0422C51.3948 57.8913 51.0776 57.7125 50.7842 57.5139C50.6573 57.4305 50.5305 57.3391 50.4116 57.2517C49.6581 56.6836 49.0001 56.0122 48.3537 55.3449C48.3221 55.3131 48.2903 55.2813 48.2784 55.2337C48.2664 55.1502 48.3576 55.0668 48.4488 55.0549C48.5441 55.047 48.6392 55.0788 48.7265 55.1145C49.7295 55.5039 50.693 56.0122 51.7358 56.3221C51.8547 56.3578 51.9737 56.3896 52.1006 56.4214C52.5407 56.5327 53.0006 56.5009 53.3733 56.7313C53.3813 56.7393 53.4011 56.7472 53.417 56.7631Z" fill="#1D445C"/>
</g>
</g>
<defs>
<linearGradient id="paint0_linear_1134_1052" x1="12.4608" y1="15.0613" x2="54.4048" y2="63.6694" gradientUnits="userSpaceOnUse">
<stop stop-color="white"/>
<stop offset="1" stop-color="white" stop-opacity="0"/>
</linearGradient>
<linearGradient id="paint1_linear_1134_1052" x1="15.4394" y1="21.8763" x2="52.1339" y2="66.8825" gradientUnits="userSpaceOnUse">
<stop stop-color="white"/>
<stop offset="1" stop-color="white" stop-opacity="0"/>
</linearGradient>
<clipPath id="clip0_1134_1052">
<rect width="80" height="72" fill="white"/>
</clipPath>
</defs>
</svg>
