<svg width="107" height="80" viewBox="0 0 107 80" fill="none" xmlns="http://www.w3.org/2000/svg">
<path d="M58.5888 26.6404C39.4485 19.8748 21.1301 22.2789 17.6728 32.0081C14.2156 41.7372 26.9291 55.1091 46.0696 61.8739C54.7213 64.931 63.2044 66.1154 70.2247 65.5969C69.6116 64.6715 69.2533 63.5642 69.2533 62.3749C69.2533 62.0559 69.2796 61.7437 69.3296 61.4383C62.6852 61.8842 55.0388 60.6998 47.441 58.0154C38.6526 54.9091 31.079 50.2017 26.1155 44.7602C21.7411 39.9644 19.9739 35.1258 21.268 31.4852C22.5621 27.8446 26.9897 25.1956 33.4155 24.2164C40.7082 23.106 49.5636 24.205 58.352 27.3112C67.1404 30.4175 74.7129 35.1248 79.6762 40.5664C84.0507 45.3623 85.8179 50.2008 84.5238 53.8413C83.8179 55.8281 82.1771 57.5183 79.788 58.8052C80.5528 59.7944 81.0093 61.032 81.0093 62.3749C81.0093 62.5403 81.0005 62.7027 80.9869 62.8652C83.9282 61.333 86.0289 59.2017 86.9867 56.5061C90.4438 46.7758 77.7306 33.405 58.5888 26.6404Z" fill="#5A65AE"/>
<path d="M56.4058 60.4862C53.5773 62.7311 50.6652 64.5579 47.77 65.8798C41.8592 68.5798 36.7004 68.7881 33.615 66.453C30.5295 64.1174 29.344 59.1062 30.3613 52.7028C30.5389 51.5862 30.7781 50.4496 31.0747 49.2989C30.7729 49.0642 30.4773 48.8281 30.1859 48.5894C27.254 58.0486 28.0112 66.235 33.0217 70.0281C39.5028 74.934 51.1708 71.0267 61.83 61.2935C60.053 61.1194 58.2392 60.8486 56.4058 60.4862Z" fill="#5A65AE"/>
<path d="M75.1525 35.1685C74.8205 36.0278 74.4568 36.8914 74.0674 37.7549C74.0956 37.8195 74.1228 37.8841 74.1501 37.9487L74.1773 38.0143C74.2274 38.1372 74.274 38.256 74.3192 38.3747L74.3455 38.4424C74.3912 38.5653 74.4359 38.6893 74.4792 38.8132L74.5011 38.8758C74.5438 39.0028 74.5842 39.1289 74.6231 39.2539L74.6377 39.3018C74.6795 39.4393 74.716 39.5706 74.7495 39.6945L74.7548 39.7164C74.7923 39.8612 74.8249 39.9935 74.8531 40.1216C74.8706 40.2007 74.8861 40.2789 74.9007 40.356C74.9386 40.5507 74.9697 40.7497 74.994 40.9486C75.0004 40.9893 75.0076 41.0455 75.014 41.1101C75.0179 41.1383 75.0213 41.1653 75.0232 41.1914C75.0295 41.2581 75.0286 41.3237 75.0222 41.3893C75.0198 41.4685 75.0149 41.5507 75.0052 41.6383C75.0052 41.6393 75.0052 41.6414 75.0052 41.6414C74.9386 42.2435 74.6678 42.8081 74.2439 43.232C74.2191 43.257 74.1928 43.2809 74.1656 43.3028L67.7599 48.5081C67.4828 48.8881 67.2018 49.2686 66.9149 49.6456C64.014 53.4559 60.8063 56.831 57.4629 59.6281C59.2899 59.9612 61.0936 60.1998 62.8588 60.3403C65.3991 57.9164 67.8693 55.1632 70.1849 52.1207C73.7582 47.4258 76.5668 42.5612 78.5513 37.8695C77.4871 36.9414 76.3519 36.0393 75.1525 35.1685Z" fill="#5A65AE"/>
<path d="M50.5758 18.6802C47.0138 21.6718 43.522 25.3198 40.3249 29.5198C35.7875 35.4812 32.4828 41.7156 30.5327 47.5239C30.8084 47.7541 31.0894 47.9823 31.3756 48.2093C33.1084 42.1979 36.3965 35.8604 40.8941 29.951C44.0182 25.8458 47.4995 22.2469 51.1227 19.3302C50.9015 19.151 50.7153 18.9302 50.5758 18.6802Z" fill="#5A65AE"/>
<path d="M77.4843 11.6114C72.083 7.52386 63.0826 9.55405 54.0642 15.9749C54.2995 16.1957 54.4852 16.4655 54.6077 16.7686C56.407 15.5676 58.2258 14.5416 60.0368 13.7145C65.9476 11.0145 71.1063 10.8061 74.192 13.1416C77.2772 15.477 78.4629 20.4884 77.4454 26.8916C77.0715 29.2447 76.4249 31.6842 75.5318 34.1572C76.7434 35.027 77.8927 35.927 78.9695 36.8541C83.3781 25.827 83.1559 15.9041 77.4843 11.6114Z" fill="#5A65AE"/>
<path d="M25.8303 21.1561C26.9437 21.1561 27.8462 20.256 27.8462 19.1456C27.8462 18.0354 26.9437 17.1353 25.8303 17.1353C24.717 17.1353 23.8145 18.0354 23.8145 19.1456C23.8145 20.256 24.717 21.1561 25.8303 21.1561Z" fill="#5A65AE"/>
<path d="M85.6799 31.2606C86.7933 31.2606 87.6961 30.3605 87.6961 29.2501C87.6961 28.1398 86.7933 27.2397 85.6799 27.2397C84.5666 27.2397 83.6643 28.1398 83.6643 29.2501C83.6643 30.3605 84.5666 31.2606 85.6799 31.2606Z" fill="#5A65AE"/>
<path d="M23.9503 60.7267C25.2886 60.7267 26.3735 59.6448 26.3735 58.3101C26.3735 56.9755 25.2886 55.8936 23.9503 55.8936C22.612 55.8936 21.5271 56.9755 21.5271 58.3101C21.5271 59.6448 22.612 60.7267 23.9503 60.7267Z" fill="#5A65AE"/>
<path d="M52.5308 19.1C53.3636 19.1 54.0384 18.427 54.0384 17.5969C54.0384 16.7667 53.3636 16.0938 52.5308 16.0938C51.6985 16.0938 51.0237 16.7667 51.0237 17.5969C51.0237 18.427 51.6985 19.1 52.5308 19.1Z" fill="#5A65AE"/>
<path d="M44.4435 13.5529C46.5491 13.5529 48.2559 11.8506 48.2559 9.75083C48.2559 7.65097 46.5491 5.94873 44.4435 5.94873C42.338 5.94873 40.6311 7.65097 40.6311 9.75083C40.6311 11.8506 42.338 13.5529 44.4435 13.5529Z" fill="#5A65AE"/>
<path d="M75.1306 67.1957C77.8001 67.1957 79.9645 65.0376 79.9645 62.3752C79.9645 59.7127 77.8001 57.5542 75.1306 57.5542C72.461 57.5542 70.2966 59.7127 70.2966 62.3752C70.2966 65.0376 72.461 67.1957 75.1306 67.1957Z" fill="#5A65AE"/>
<path d="M39.4058 18.6237C36.3183 17.5705 32.9237 17.1049 31.805 18.0403C30.6863 18.9768 30.5568 22.3903 31.0613 25.606C31.5366 28.6424 33.0323 31.4486 35.7511 34.6809L41.6515 29.7435L47.5518 24.806C44.8341 21.5737 42.322 19.6174 39.4058 18.6237Z" fill="#E59273"/>
<path opacity="0.14" d="M37.6834 33.7041C36.3611 31.8645 34.482 29.1114 34.1426 26.7499C33.8156 24.4729 33.9399 22.8343 34.1352 22.2208C34.2376 22.2073 34.3839 22.1958 34.5833 22.1958C35.6132 22.1958 37.1194 22.4999 38.614 23.0093C40.2309 23.5604 41.7235 24.5614 43.3101 26.1801L37.6834 33.7041Z" fill="black"/>
<path d="M67.5507 18.6231C70.6384 17.57 74.0328 17.1044 75.1515 18.0398C76.2701 18.9763 76.3999 22.3898 75.8953 25.6054C75.4203 28.6419 73.9244 31.4482 71.2057 34.6805L65.3051 29.743L59.405 24.8054C62.1227 21.5731 64.6347 19.6169 67.5507 18.6231Z" fill="#E59273"/>
<path opacity="0.35" d="M69.2734 33.7041C70.5957 31.8645 72.4748 29.1114 72.8141 26.7499C73.1408 24.4729 73.0169 22.8343 72.8214 22.2208C72.7188 22.2073 72.573 22.1958 72.3732 22.1958C71.3435 22.1958 69.8373 22.4999 68.3424 23.0093C66.7259 23.5604 65.2333 24.5614 63.6465 26.1801L69.2734 33.7041Z" fill="#963C20"/>
<path opacity="0.12" d="M75.1505 18.0398C74.0318 17.1033 70.6384 17.57 67.5498 18.6231C64.6332 19.6179 62.1222 21.5742 59.4026 24.8054L65.3027 29.7429L71.2033 34.6804C73.9219 31.4492 75.4179 28.6419 75.8929 25.6054C76.3985 22.3898 76.2691 18.9763 75.1505 18.0398Z" fill="#ED1C24"/>
<path d="M73.9663 41.1697H73.9672C73.4981 36.8686 68.6923 30.9759 66.2965 27.9988C62.043 22.7124 59.34 20.8124 53.4802 20.7207C47.6207 20.8134 44.9165 22.7124 40.6644 27.9988C38.2819 30.9603 33.5179 36.804 33.0061 41.0988C32.9999 41.1373 32.9946 41.1759 32.9915 41.2155C32.9894 41.2394 32.9852 41.2634 32.9832 41.2863H32.9884C32.9727 41.7228 33.1294 42.1634 33.4615 42.4947L52.3285 57.8237C52.6459 58.1403 53.0636 58.2979 53.4812 58.2989C53.8993 58.2989 54.3169 58.1403 54.6344 57.8237L73.5015 42.4947C73.8617 42.1332 74.0163 41.6426 73.9663 41.1697ZM33.0249 40.9915C33.0249 40.9905 33.026 40.9884 33.026 40.9874C33.0249 40.9884 33.0249 40.9894 33.0249 40.9915ZM33.0625 40.8478C33.0646 40.8426 33.0657 40.8373 33.0677 40.8332C33.0667 40.8384 33.0646 40.8436 33.0625 40.8478ZM33.1137 40.7082C33.1179 40.6988 33.1231 40.6884 33.1273 40.679C33.1231 40.6894 33.1179 40.6988 33.1137 40.7082ZM73.9245 40.9436C73.9201 40.929 73.9181 40.9145 73.9138 40.8999C73.9181 40.9145 73.9211 40.929 73.9245 40.9436ZM73.7728 40.5571C73.7592 40.5322 73.7446 40.5082 73.73 40.4842C73.7456 40.5092 73.7592 40.5332 73.7728 40.5571Z" fill="#E59273"/>
<path d="M48.6078 41.175C47.3513 35.6511 44.057 31.2313 39.9667 28.8667C37.4568 32.0011 33.472 37.1907 33.0052 41.098C32.9989 41.1365 32.9936 41.175 32.9905 41.2146C32.9884 41.2386 32.9843 41.2626 32.9822 41.2855H32.9874C32.9717 41.7219 33.1284 42.1626 33.4606 42.4938L47.3889 53.8113C49.1038 50.2001 49.643 45.7282 48.6078 41.175ZM33.025 40.9917C33.025 40.9907 33.026 40.9886 33.026 40.9876C33.025 40.9886 33.025 40.9896 33.025 40.9917ZM33.0626 40.848C33.0647 40.8427 33.0658 40.8375 33.0678 40.8334C33.0668 40.8386 33.0647 40.8427 33.0626 40.848ZM33.1138 40.7084C33.118 40.699 33.1232 40.6886 33.1273 40.6792C33.1232 40.6896 33.118 40.699 33.1138 40.7084Z" fill="#EBE3CC"/>
<path d="M48.6078 41.175C47.3513 35.6511 44.057 31.2313 39.9667 28.8667C37.4568 32.0011 33.472 37.1907 33.0052 41.098C32.9989 41.1365 32.9936 41.175 32.9905 41.2146C32.9884 41.2386 32.9843 41.2626 32.9822 41.2855H32.9874C32.9717 41.7219 33.1284 42.1626 33.4606 42.4938L47.3889 53.8113C49.1038 50.2001 49.643 45.7282 48.6078 41.175ZM33.025 40.9917C33.025 40.9907 33.026 40.9886 33.026 40.9876C33.025 40.9886 33.025 40.9896 33.025 40.9917ZM33.0626 40.848C33.0647 40.8427 33.0658 40.8375 33.0678 40.8334C33.0668 40.8386 33.0647 40.8427 33.0626 40.848ZM33.1138 40.7084C33.118 40.699 33.1232 40.6886 33.1273 40.6792C33.1232 40.6896 33.118 40.699 33.1138 40.7084Z" fill="#EBE3CC"/>
<path d="M59.5747 53.8113L73.5033 42.4938C73.8354 42.1626 73.9919 41.7219 73.9764 41.2855H73.9817C73.9798 41.2615 73.9754 41.2375 73.9735 41.2146C73.9701 41.1761 73.9647 41.1365 73.9589 41.098C73.4917 37.1907 69.5071 32.0011 66.997 28.8667C62.9069 31.2313 59.6116 35.6501 58.3559 41.175C57.3208 45.7282 57.86 50.2001 59.5747 53.8113ZM73.938 40.9865C73.938 40.9875 73.9389 40.9896 73.9389 40.9907C73.9389 40.9896 73.9389 40.9886 73.938 40.9865ZM73.8962 40.8334C73.8981 40.8386 73.9 40.8438 73.901 40.848C73.8991 40.8427 73.8971 40.8386 73.8962 40.8334ZM73.8364 40.6792C73.8407 40.6886 73.8461 40.698 73.85 40.7084C73.8461 40.699 73.8407 40.6896 73.8364 40.6792ZM73.657 40.373C73.6735 40.3948 73.69 40.4167 73.7061 40.4396C73.69 40.4178 73.6725 40.3959 73.657 40.373Z" fill="#EBE3CC"/>
<path d="M59.5747 53.8113L73.5033 42.4938C73.8354 42.1626 73.9919 41.7219 73.9764 41.2855H73.9817C73.9798 41.2615 73.9754 41.2375 73.9735 41.2146C73.9701 41.1761 73.9647 41.1365 73.9589 41.098C73.4917 37.1907 69.5071 32.0011 66.997 28.8667C62.9069 31.2313 59.6116 35.6501 58.3559 41.175C57.3208 45.7282 57.86 50.2001 59.5747 53.8113ZM73.938 40.9865C73.938 40.9875 73.9389 40.9896 73.9389 40.9907C73.9389 40.9896 73.9389 40.9886 73.938 40.9865ZM73.8962 40.8334C73.8981 40.8386 73.9 40.8438 73.901 40.848C73.8991 40.8427 73.8971 40.8386 73.8962 40.8334ZM73.8364 40.6792C73.8407 40.6886 73.8461 40.698 73.85 40.7084C73.8461 40.699 73.8407 40.6896 73.8364 40.6792ZM73.657 40.373C73.6735 40.3948 73.69 40.4167 73.7061 40.4396C73.69 40.4178 73.6725 40.3959 73.657 40.373Z" fill="#EBE3CC"/>
<g opacity="0.13">
<path opacity="0.13" d="M52.3955 46.4997L50.0921 45.8843L49.8757 46.6892L52.1792 47.3047L52.3955 46.4997Z" fill="white"/>
<path opacity="0.13" d="M56.8686 45.8862L54.5657 46.5017L54.782 47.3066L57.085 46.6912L56.8686 45.8862Z" fill="white"/>
<path opacity="0.13" d="M52.7085 48.4529L50.4056 47.8374L50.1892 48.6423L52.4922 49.2579L52.7085 48.4529Z" fill="white"/>
<path opacity="0.13" d="M56.5557 47.8394L54.2522 48.4548L54.4685 49.2597L56.7715 48.6443L56.5557 47.8394Z" fill="white"/>
<path opacity="0.13" d="M52.8133 50.4057L50.5103 49.7905L50.2939 50.5954L52.5969 51.2105L52.8133 50.4057Z" fill="white"/>
<path opacity="0.13" d="M56.4512 49.7925L54.1477 50.4081L54.364 51.213L56.6675 50.5974L56.4512 49.7925Z" fill="white"/>
</g>
<path opacity="0.12" d="M73.9663 41.1697H73.9673C73.4981 36.8686 68.6923 30.9759 66.2965 27.9988C62.0431 22.7124 59.34 20.8124 53.4802 20.7207C53.4792 20.7207 53.4792 20.7207 53.4783 20.7207V58.2989C53.4792 58.2989 53.4792 58.2989 53.4802 58.2989C53.8983 58.2989 54.3159 58.1403 54.6334 57.8237L73.5 42.4947C73.8618 42.1332 74.0164 41.6426 73.9663 41.1697Z" fill="#ED1C24"/>
<path d="M47.3887 53.8116L52.3259 57.8238C52.6434 58.1403 53.0615 58.2979 53.4791 58.2989C53.8967 58.2989 54.3148 58.1403 54.6323 57.8238L59.5698 53.8125C57.7666 53.5184 55.6892 53.3521 53.4772 53.3521C51.2671 53.3511 49.1916 53.5189 47.3887 53.8116Z" fill="#4A454B"/>
<path opacity="0.33" d="M53.4803 56.555C53.4355 56.555 53.3709 56.5438 53.3155 56.4897C53.2819 56.456 53.2464 56.4238 53.21 56.3945L50.8545 54.4814C51.7121 54.4258 52.5916 54.3979 53.4774 54.3979C54.3641 54.3979 55.2455 54.4258 56.1041 54.4823L53.7501 56.3955C53.7131 56.4258 53.6777 56.457 53.6446 56.4906C53.5902 56.5438 53.5255 56.555 53.4803 56.555Z" fill="white"/>
<path opacity="0.08" d="M62.202 44.7709C63.5535 44.7709 64.6494 43.6782 64.6494 42.3303C64.6494 40.9823 63.5535 39.8896 62.202 39.8896C60.8505 39.8896 59.7546 40.9823 59.7546 42.3303C59.7546 43.6782 60.8505 44.7709 62.202 44.7709Z" fill="black"/>
<path d="M61.8885 44.2499C63.2401 44.2499 64.3359 43.1572 64.3359 41.8093C64.3359 40.4614 63.2401 39.3687 61.8885 39.3687C60.537 39.3687 59.4412 40.4614 59.4412 41.8093C59.4412 43.1572 60.537 44.2499 61.8885 44.2499Z" fill="#4A454B"/>
<path d="M60.5715 43.469C61.1067 43.469 61.5409 43.0362 61.5409 42.5023C61.5409 41.9684 61.1067 41.5356 60.5715 41.5356C60.0362 41.5356 59.6021 41.9684 59.6021 42.5023C59.6021 43.0362 60.0362 43.469 60.5715 43.469Z" fill="white"/>
<path opacity="0.08" d="M44.7568 44.7709C46.1084 44.7709 47.204 43.6782 47.204 42.3303C47.204 40.9823 46.1084 39.8896 44.7568 39.8896C43.4052 39.8896 42.3096 40.9823 42.3096 42.3303C42.3096 43.6782 43.4052 44.7709 44.7568 44.7709Z" fill="black"/>
<path d="M45.0701 44.2499C46.4217 44.2499 47.5173 43.1572 47.5173 41.8093C47.5173 40.4614 46.4217 39.3687 45.0701 39.3687C43.7185 39.3687 42.6228 40.4614 42.6228 41.8093C42.6228 43.1572 43.7185 44.2499 45.0701 44.2499Z" fill="#4A454B"/>
<path d="M46.3873 43.469C46.9226 43.469 47.3566 43.0362 47.3566 42.5023C47.3566 41.9684 46.9226 41.5356 46.3873 41.5356C45.852 41.5356 45.418 41.9684 45.418 42.5023C45.418 43.0362 45.852 43.469 46.3873 43.469Z" fill="white"/>
<path d="M63.4598 32.5039C59.0727 32.5039 55.5173 36.0498 55.5173 40.4247C55.5173 44.7998 59.0727 48.3456 63.4598 48.3456C67.8465 48.3456 71.4018 44.7998 71.4018 40.4247C71.4018 36.0498 67.8465 32.5039 63.4598 32.5039ZM63.4598 46.3102C60.2049 46.3102 57.5573 43.6696 57.5573 40.4237C57.5573 37.1779 60.2049 34.5373 63.4598 34.5373C66.7142 34.5373 69.3619 37.1779 69.3619 40.4237C69.3619 43.6696 66.7142 46.3102 63.4598 46.3102Z" fill="#4A454B"/>
<path d="M43.497 32.5039C39.1102 32.5039 35.5547 36.0498 35.5547 40.4247C35.5547 44.7998 39.1102 48.3456 43.497 48.3456C47.884 48.3456 51.4393 44.7998 51.4393 40.4247C51.4393 36.0498 47.8829 32.5039 43.497 32.5039ZM43.497 46.3102C40.2424 46.3102 37.5946 43.6696 37.5946 40.4237C37.5946 37.1779 40.2424 34.5373 43.497 34.5373C46.7517 34.5373 49.3993 37.1779 49.3993 40.4237C49.3993 43.6696 46.7517 46.3102 43.497 46.3102Z" fill="#4A454B"/>
<path d="M55.6437 39.7949H51.2546V41.9252H55.6437V39.7949Z" fill="#4A454B"/>
<path d="M35.7171 34.6611L34.6492 36.5059L37.048 37.8871L38.116 36.0424L35.7171 34.6611Z" fill="#4A454B"/>
<path d="M71.2359 34.6597L68.8372 36.0409L69.9053 37.8857L72.304 36.5044L71.2359 34.6597Z" fill="#4A454B"/>
</svg>
