<svg width="20" height="21" viewBox="0 0 20 21" fill="none" xmlns="http://www.w3.org/2000/svg">
<path d="M16.7707 16.8593H3.229C2.36605 16.8593 1.6665 16.1597 1.6665 15.2968V5.92175C1.6665 5.0588 2.36605 4.35925 3.229 4.35925H16.7707C17.6336 4.35925 18.3332 5.0588 18.3332 5.92175V15.2968C18.3332 16.1597 17.6336 16.8593 16.7707 16.8593ZM5.31234 6.18217C4.30557 6.18217 3.48942 6.99832 3.48942 8.00509C3.48942 9.01186 4.30557 9.828 5.31234 9.828C6.31911 9.828 7.13525 9.01186 7.13525 8.00509C7.13525 6.99832 6.31911 6.18217 5.31234 6.18217ZM3.74984 14.7759H16.2498V11.1301L13.401 8.28129C13.2485 8.12875 13.0012 8.12875 12.8486 8.28129L8.43734 12.6926L6.63021 10.8855C6.47767 10.7329 6.23034 10.7329 6.07777 10.8855L3.74984 13.2134V14.7759Z" fill="#707070"/>
</svg>
